<svg width="23" height="20" viewBox="0 0 23 20" fill="none" xmlns="http://www.w3.org/2000/svg">
<path d="M19.782 2.60696C19.2933 2.10246 18.7131 1.70225 18.0745 1.42921C17.4359 1.15616 16.7514 1.01562 16.0601 1.01562C15.3688 1.01562 14.6843 1.15616 14.0457 1.42921C13.4071 1.70225 12.8269 2.10246 12.3382 2.60696L11.324 3.65348L10.3098 2.60696C9.32264 1.58838 7.98382 1.01615 6.58783 1.01615C5.19183 1.01615 3.85301 1.58838 2.86589 2.60696C1.87878 3.62553 1.32422 5.00701 1.32422 6.44749C1.32422 7.88797 1.87878 9.26946 2.86589 10.288L3.8801 11.3346L11.324 19.0156L18.7678 11.3346L19.782 10.288C20.271 9.78377 20.6588 9.18505 20.9234 8.52608C21.188 7.86711 21.3242 7.16079 21.3242 6.44749C21.3242 5.73419 21.188 5.02788 20.9234 4.36891C20.6588 3.70994 20.271 3.11122 19.782 2.60696Z" stroke="black" stroke-width="1.5" stroke-linecap="round" stroke-linejoin="round"/>
</svg>
