<svg width="30" height="30" viewBox="0 0 30 30" fill="none" xmlns="http://www.w3.org/2000/svg">
<g id="Group">
<path id="Vector" d="M20.0007 0.835938H10.0007C4.93804 0.835938 0.833984 4.93999 0.833984 10.0026V20.0026C0.833984 25.0652 4.93804 29.1693 10.0007 29.1693H20.0007C25.0633 29.1693 29.1673 25.0652 29.1673 20.0026V10.0026C29.1673 4.93999 25.0633 0.835938 20.0007 0.835938Z" stroke="black" stroke-width="1.5" stroke-linecap="round" stroke-linejoin="round"/>
<path id="Vector_2" d="M15.0002 21.0122C18.3195 21.0122 21.0102 18.3214 21.0102 15.0022C21.0102 11.683 18.3195 8.99219 15.0002 8.99219C11.681 8.99219 8.99023 11.683 8.99023 15.0022C8.99023 18.3214 11.681 21.0122 15.0002 21.0122Z" stroke="black" stroke-width="1.5" stroke-linecap="round" stroke-linejoin="round"/>
<path id="Vector_3" d="M23.1581 8.56614C24.1062 8.56614 24.8747 7.79757 24.8747 6.84948C24.8747 5.90139 24.1062 5.13281 23.1581 5.13281C22.21 5.13281 21.4414 5.90139 21.4414 6.84948C21.4414 7.79757 22.21 8.56614 23.1581 8.56614Z" fill="black"/>
</g>
</svg>
