<svg width="40" height="41" viewBox="0 0 40 41" fill="none" xmlns="http://www.w3.org/2000/svg">
<g id="la:shipping-fast">
<path id="Vector" d="M0 8.45312V10.9531H23.75V29.7031H16.055C15.4975 27.5544 13.565 25.9531 11.25 25.9531C8.935 25.9531 7.0025 27.5544 6.445 29.7031H5V23.4531H2.5V32.2031H6.445C7.0025 34.3519 8.935 35.9531 11.25 35.9531C13.565 35.9531 15.4975 34.3519 16.055 32.2031H26.445C27.0025 34.3519 28.935 35.9531 31.25 35.9531C33.565 35.9531 35.4975 34.3519 36.055 32.2031H40V22.0081L39.9212 21.8119L37.4212 14.3119L37.15 13.4531H26.25V8.45312H0ZM1.25 13.4531V15.9531H12.5V13.4531H1.25ZM26.25 15.9531H35.3512L37.5 22.3594V29.7031H36.055C35.4975 27.5544 33.565 25.9531 31.25 25.9531C28.935 25.9531 27.0025 27.5544 26.445 29.7031H26.25V15.9531ZM2.5 18.4531V20.9531H10V18.4531H2.5ZM11.25 28.4531C12.6462 28.4531 13.75 29.5569 13.75 30.9531C13.75 32.3494 12.6462 33.4531 11.25 33.4531C9.85375 33.4531 8.75 32.3494 8.75 30.9531C8.75 29.5569 9.85375 28.4531 11.25 28.4531ZM31.25 28.4531C32.6463 28.4531 33.75 29.5569 33.75 30.9531C33.75 32.3494 32.6463 33.4531 31.25 33.4531C29.8538 33.4531 28.75 32.3494 28.75 30.9531C28.75 29.5569 29.8538 28.4531 31.25 28.4531Z" fill="black"/>
</g>
</svg>
