<svg width="32" height="30" viewBox="0 0 32 30" fill="none" xmlns="http://www.w3.org/2000/svg">
<path id="Vector" d="M6.78386 3.335C6.78341 4.21906 6.4318 5.06673 5.80637 5.69154C5.18093 6.31634 4.33291 6.66711 3.44885 6.66667C2.5648 6.66623 1.71713 6.31461 1.09232 5.68918C0.467511 5.06374 0.116746 4.21572 0.117188 3.33167C0.11763 2.44761 0.469243 1.59994 1.09468 0.975132C1.72011 0.350324 2.56813 -0.00044161 3.45219 4.17269e-07C4.33624 0.000442445 5.18391 0.352056 5.80872 0.97749C6.43353 1.60292 6.7843 2.45095 6.78386 3.335ZM6.88386 9.135H0.217188V30.0017H6.88386V9.135ZM17.4172 9.135H10.7839V30.0017H17.3505V19.0517C17.3505 12.9517 25.3005 12.385 25.3005 19.0517V30.0017H31.8839V16.785C31.8839 6.50167 20.1172 6.885 17.3505 11.935L17.4172 9.135Z" fill="black"/>
</svg>
