<svg width="40" height="41" viewBox="0 0 40 41" fill="none" xmlns="http://www.w3.org/2000/svg">
<g id="lucide:rotate-cw">
<g id="Group">
<path id="Vector" d="M35 20.4531C35 23.4198 34.1203 26.3199 32.4721 28.7867C30.8238 31.2534 28.4811 33.176 25.7403 34.3113C22.9994 35.4466 19.9834 35.7437 17.0737 35.1649C14.1639 34.5861 11.4912 33.1575 9.3934 31.0597C7.29562 28.9619 5.86701 26.2892 5.28823 23.3795C4.70945 20.4698 5.0065 17.4538 6.14181 14.7129C7.27713 11.972 9.19972 9.6293 11.6665 7.98108C14.1332 6.33286 17.0333 5.45313 20 5.45312C24.2 5.45312 28.2167 7.11979 31.2333 10.0198L35 13.7865" stroke="black" stroke-width="2" stroke-linecap="round" stroke-linejoin="round"/>
<path id="Vector_2" d="M34.9993 5.45312V13.7865H26.666" stroke="black" stroke-width="2" stroke-linecap="round" stroke-linejoin="round"/>
</g>
</g>
</svg>
