<svg width="34" height="24" viewBox="0 0 34 24" fill="none" xmlns="http://www.w3.org/2000/svg">
<path id="Vector" d="M13.6673 17.0026L22.3173 12.0026L13.6673 7.0026V17.0026ZM32.934 3.9526C33.1507 4.73594 33.3007 5.78594 33.4007 7.11927C33.5173 8.4526 33.5673 9.6026 33.5673 10.6026L33.6673 12.0026C33.6673 15.6526 33.4007 18.3359 32.934 20.0526C32.5173 21.5526 31.5507 22.5193 30.0507 22.9359C29.2673 23.1526 27.834 23.3026 25.634 23.4026C23.4673 23.5193 21.484 23.5693 19.6507 23.5693L17.0007 23.6693C10.0173 23.6693 5.66732 23.4026 3.95065 22.9359C2.45065 22.5193 1.48398 21.5526 1.06732 20.0526C0.850651 19.2693 0.700651 18.2193 0.600651 16.8859C0.483985 15.5526 0.433984 14.4026 0.433984 13.4026L0.333984 12.0026C0.333984 8.3526 0.600651 5.66927 1.06732 3.9526C1.48398 2.4526 2.45065 1.48594 3.95065 1.06927C4.73398 0.852604 6.16732 0.702604 8.36732 0.602604C10.534 0.485937 12.5173 0.435937 14.3507 0.435937L17.0007 0.335938C23.984 0.335938 28.334 0.602604 30.0507 1.06927C31.5507 1.48594 32.5173 2.4526 32.934 3.9526Z" fill="#0D0C0C"/>
</svg>
