<svg width="84" height="54" viewBox="0 0 84 54" fill="none" xmlns="http://www.w3.org/2000/svg">
<rect x="0.5" y="0.601562" width="83" height="52" rx="4.5" fill="white"/>
<rect x="0.5" y="0.601562" width="83" height="52" rx="4.5" stroke="#DEDCDC"/>
<path d="M43.6667 17.5182C43.6667 17.9603 43.4911 18.3842 43.1785 18.6967C42.8659 19.0093 42.442 19.1849 42 19.1849C41.558 19.1849 41.134 19.0093 40.8215 18.6967C40.5089 18.3842 40.3333 17.9603 40.3333 17.5182C40.3333 17.0762 40.5089 16.6523 40.8215 16.3397C41.134 16.0272 41.558 15.8516 42 15.8516C42.442 15.8516 42.8659 16.0272 43.1785 16.3397C43.4911 16.6523 43.6667 17.0762 43.6667 17.5182ZM43.72 10.9766C43.2206 10.6119 42.6183 10.4154 42 10.4154C41.3817 10.4154 40.7794 10.6119 40.28 10.9766L27.9117 20.0016C26.2817 21.1899 27.1233 23.7682 29.1383 23.7682H29.5V33.4349C28.7474 33.819 28.1156 34.4036 27.6744 35.1242C27.2332 35.8448 26.9998 36.6733 27 37.5182V40.0182C27 40.7066 27.56 41.2682 28.25 41.2682H55.75C56.0815 41.2682 56.3995 41.1365 56.6339 40.9021C56.8683 40.6677 57 40.3498 57 40.0182V37.5182C57.0002 36.6733 56.7668 35.8448 56.3256 35.1242C55.8844 34.4036 55.2526 33.819 54.5 33.4349V23.7682H54.8617C56.8783 23.7682 57.7167 21.1899 56.0883 20.0016L43.72 10.9766ZM41.7533 12.9949C41.8247 12.9428 41.9108 12.9147 41.9992 12.9147C42.0875 12.9147 42.1736 12.9428 42.245 12.9949L53.5833 21.2682H30.4167L41.7533 12.9949ZM52 23.7682V32.9349H48.6667V23.7682H52ZM46.1667 23.7682V32.9349H43.25V23.7682H46.1667ZM40.75 23.7682V32.9349H37.8333V23.7682H40.75ZM31.5833 35.4349H52.4167C53.5667 35.4349 54.5 36.3682 54.5 37.5182V38.7682H29.5V37.5182C29.5 36.3682 30.4333 35.4349 31.5833 35.4349ZM32 32.9349V23.7682H35.3333V32.9349H32Z" fill="black"/>
</svg>
