<svg width="92" height="54" viewBox="0 0 92 54" fill="none" xmlns="http://www.w3.org/2000/svg">
<rect x="0.5" y="0.710938" width="91" height="51.8906" rx="4.5" fill="white"/>
<rect x="0.5" y="0.710938" width="91" height="51.8906" rx="4.5" stroke="#DEDCDC"/>
<g clip-path="url(#clip0_3725_244)">
<path d="M60.619 20.7383C62.5433 20.7383 64.0304 21.2631 65.1677 22.3129C66.3047 23.3624 66.8295 24.762 66.8295 26.5115V34.9087H64.3803V32.9846H64.2928C63.2432 34.5592 61.7561 35.3464 60.0067 35.3464C58.5196 35.3464 57.2075 34.9089 56.1579 34.0343C55.1957 33.1596 54.5833 31.935 54.5833 30.6229C54.5833 29.2233 55.1082 28.0861 56.1579 27.2113C57.2075 26.3366 58.6946 25.9868 60.444 25.9868C62.0185 25.9868 63.2432 26.2493 64.2053 26.8615V26.2493C64.2053 25.4328 63.9005 24.6164 63.2909 24.0845L63.1556 23.9749C62.4558 23.3626 61.5811 23.0127 60.619 23.0127C59.132 23.0127 57.9948 23.625 57.2075 24.8497L54.9333 23.4498C56.3328 21.6129 58.1697 20.7383 60.619 20.7383ZM48.2854 14.79C49.8549 14.79 51.3465 15.3362 52.5391 16.3548L52.7465 16.5394C53.9711 17.5891 54.5833 19.1637 54.5833 20.8256C54.5833 22.4876 53.9711 23.9747 52.7465 25.1118C51.5219 26.2488 50.0348 26.8612 48.2854 26.8612L44.0867 26.7737V34.9087H41.4624V14.79H48.2854ZM60.9687 28.0859C59.9191 28.0859 59.0444 28.3483 58.3447 28.8732C57.6449 29.3105 57.295 29.9228 57.295 30.71C57.295 31.4098 57.645 32.0221 58.1697 32.3721C58.7821 32.8094 59.4818 33.0718 60.1817 33.0718C61.1612 33.0718 62.141 32.6908 62.9073 31.9999L63.0682 31.8472C63.9429 31.06 64.3803 30.0978 64.3803 29.048C63.5931 28.4358 62.4558 28.0858 60.9689 28.0858M48.4605 17.2391H44.0869V24.2373H48.4605C49.4226 24.2373 50.3848 23.8874 50.9972 23.1877C52.3966 21.8756 52.3966 19.6888 51.0847 18.3766L50.9972 18.2891C50.2973 17.5894 49.4226 17.152 48.4604 17.2395M81.0001 21.1756L72.3403 41.032H69.7162L72.9526 34.1217L67.2668 21.2631H70.066L74.1771 31.1475H74.2646L78.2884 21.2631H81.0001V21.1756Z" fill="black"/>
<path d="M33.6772 25.0244C33.6772 24.2372 33.5897 23.4499 33.5022 22.6627H22.5684V27.1238H28.7788C28.5164 28.5233 27.7292 29.8354 26.5046 30.6228V33.5093H30.2659C32.4527 31.4975 33.6773 28.5233 33.6773 25.0245" fill="#4285F4"/>
<path d="M22.5683 36.3085C25.7172 36.3085 28.3414 35.2587 30.2658 33.5093L26.5046 30.6228C25.4548 31.3225 24.1428 31.7598 22.5683 31.7598C19.5941 31.7598 16.9699 29.748 16.0952 26.9488H12.2466V29.9229C14.2584 33.8592 18.1947 36.3085 22.5683 36.3085Z" fill="#34A853"/>
<path d="M16.0952 26.9488C15.5705 25.5493 15.5705 23.9748 16.0952 22.4877V19.5137H12.2466C10.5845 22.7502 10.5845 26.599 12.2466 29.9229L16.0952 26.9488Z" fill="#FBBC04"/>
<path d="M22.5683 17.7642C24.2303 17.7642 25.8047 18.3766 27.0295 19.5137L30.3534 16.1898C28.2539 14.2653 25.4549 13.1282 22.6557 13.2156C18.2821 13.2156 14.2584 15.6649 12.334 19.6012L16.1828 22.5752C16.97 19.776 19.5942 17.7642 22.5683 17.7642Z" fill="#EA4335"/>
</g>
<defs>
<clipPath id="clip0_3725_244">
<rect width="70" height="27.8906" fill="white" transform="translate(11 13.2109)"/>
</clipPath>
</defs>
</svg>
