<svg width="78" height="54" viewBox="0 0 78 54" fill="none" xmlns="http://www.w3.org/2000/svg">
<g clip-path="url(#clip0_3725_237)">
<rect x="1" y="1.21094" width="76" height="51" rx="4" fill="white"/>
<path fill-rule="evenodd" clip-rule="evenodd" d="M22.6789 28.8083C24.3011 28.8083 25.5812 27.9859 25.5812 26.9054C25.5812 26.0384 24.6597 25.5332 23.4318 25.5332C21.8216 25.5332 20.5676 26.4002 20.5676 27.4807C20.5676 28.3477 21.4653 28.8083 22.6789 28.8083ZM11.0011 22.6118H11.6209C13.1124 22.6118 14.2334 22.7441 13.9294 23.9314C13.6658 25.0566 12.5448 25.1889 11.0937 25.1889L10.0107 25.216L10.5783 22.8509C10.6044 22.7011 10.8039 22.6118 11.0011 22.6118ZM48.4999 22.6118H49.0937C50.2171 22.6118 51.4663 22.6564 51.4806 23.5952C51.4806 24.9228 50.2931 25.1889 48.5783 25.1889L47.5238 25.216L48.0772 22.8509C48.1033 22.7011 48.2624 22.6118 48.4999 22.6118ZM58.0379 27.4807C58.0379 26.3922 59.2919 25.5332 60.9022 25.5332C62.1301 25.5332 63.0539 26.0384 63.0397 26.9054C63.0397 27.9939 61.7596 28.8083 60.1754 28.8083C58.9618 28.8083 58.0379 28.3398 58.0379 27.4807Z" fill="white"/>
<path fill-rule="evenodd" clip-rule="evenodd" d="M76.9999 11.1272V42.2946C76.9981 43.4215 76.3301 44.502 75.1426 45.2988C73.9552 46.0957 72.3452 46.5439 70.6658 46.5452H7.33168C5.65235 46.5439 4.04233 46.0957 2.85486 45.2988C1.66739 44.502 0.999444 43.4215 0.997559 42.2946V11.1272C0.999444 10.0003 1.66739 8.91992 2.85486 8.12307C4.04233 7.32621 5.65235 6.87798 7.33168 6.87672H70.6658C72.3452 6.87798 73.9552 7.32621 75.1426 8.12307C76.3301 8.91992 76.9981 10.0003 76.9999 11.1272ZM13.3499 20.6356C15.7914 20.6356 17.9289 21.2555 17.9289 23.1154L17.9313 23.1138C17.9313 25.6638 15.6228 27.1683 11.8489 27.1683C11.2148 27.1683 9.60693 26.9468 9.47393 27.5843L8.88018 29.9399C8.83981 30.1885 8.50968 30.4451 8.15343 30.4451H5.64543C5.38181 30.4451 5.18231 30.2682 5.22268 30.0913L7.38631 21.0515C7.40492 20.9378 7.4851 20.8326 7.61162 20.756C7.73814 20.6793 7.90221 20.6364 8.07268 20.6356H13.3499ZM26.5312 23.8948H29.0392C29.3028 23.8948 29.5023 24.0717 29.4619 24.2406L28.1153 29.9335C28.0488 30.1821 27.7448 30.4387 27.3886 30.4387H25.1181C24.8283 30.4387 24.6953 30.2889 24.6953 30.0849C24.7076 29.8988 24.7522 29.7142 24.8283 29.5351C23.9971 30.155 22.5198 30.5885 21.3323 30.5885C18.7602 30.5885 17.1499 29.4633 17.1499 27.7373C17.1499 25.6383 19.6176 23.7354 22.8499 23.7354C24.1039 23.7354 25.2131 23.8693 25.9778 24.6215C26.0039 24.3825 26.0301 23.8948 26.5312 23.8948ZM42.7881 24.3633L34.3829 32.5632V32.5664C34.3163 32.6323 34.2283 32.6872 34.1254 32.727C34.0226 32.7667 33.9076 32.7903 33.7892 32.7959H31.2551C31.0294 32.7959 30.8323 32.6716 30.8323 32.5122C30.8323 32.246 33.1812 30.0498 33.5374 29.7136C33.3118 29.245 30.7397 24.3219 30.7397 24.2151C30.7397 24.0653 30.9368 23.9059 31.1624 23.9059H33.6301C33.7898 23.91 33.9441 23.9458 34.0735 24.0088C34.2028 24.0718 34.3015 24.1591 34.3568 24.2597L35.8079 27.5795L39.3039 24.1259C39.3705 24.0606 39.4588 24.0066 39.5619 23.9681C39.6649 23.9297 39.7799 23.9078 39.8977 23.9043H42.4318C42.6574 23.9043 42.8546 24.0637 42.8546 24.2135C42.8546 24.2741 42.8546 24.3187 42.7881 24.3633ZM50.8227 20.6356C53.2642 20.6356 55.4017 21.2555 55.4017 23.1154C55.4017 25.6654 53.0908 27.1699 49.3431 27.1699C48.7113 27.1699 47.1011 26.9484 46.9681 27.5859L46.3743 30.1534C46.3078 30.3048 46.1107 30.4371 45.8471 30.4371H43.1419C42.8902 30.4371 42.6931 30.2602 42.7192 30.0833L44.8567 21.0515C44.8844 20.9355 44.9727 20.83 45.1059 20.7537C45.2391 20.6775 45.4084 20.6356 45.5834 20.6356H50.8227ZM64.0016 23.8948H66.5096C66.7732 23.8948 66.9703 24.0717 66.9299 24.2406L65.5833 29.9335C65.5168 30.1821 65.2128 30.4387 64.8566 30.4387H62.5742C62.2844 30.4387 62.1514 30.2889 62.1514 30.0849C62.1514 29.951 62.2441 29.6673 62.2844 29.5351C61.4936 30.155 60.0163 30.5885 58.7884 30.5885C56.2163 30.5885 54.6061 29.4633 54.6061 27.7373C54.6061 25.6383 57.0737 23.7354 60.3061 23.7354C61.5862 23.7354 62.7072 23.8693 63.4339 24.6215C63.4743 24.3825 63.5004 23.8948 64.0016 23.8948ZM72.3544 20.6372C72.5801 20.6372 72.7772 20.7694 72.7772 20.9463V20.9734L70.6397 29.9335C70.6136 30.1821 70.2834 30.4387 69.9533 30.4387H67.7754C67.5118 30.4387 67.3147 30.2889 67.3147 30.1295L67.3527 30.0849L69.4902 20.8762C69.5163 20.7439 69.7158 20.6372 69.9129 20.6372H72.3544Z" fill="white"/>
<path fill-rule="evenodd" clip-rule="evenodd" d="M29.0392 23.8948H26.5312C26.0301 23.8948 26.0039 24.3825 25.9778 24.6215C25.2131 23.8693 24.1039 23.7354 22.8499 23.7354C19.6176 23.7354 17.1499 25.6383 17.1499 27.7373C17.1499 29.4633 18.7602 30.5885 21.3323 30.5885C22.5198 30.5885 23.9971 30.155 24.8283 29.5351C24.7522 29.7142 24.7076 29.8988 24.6953 30.0849C24.6953 30.2889 24.8283 30.4387 25.1181 30.4387H27.3886C27.7448 30.4387 28.0488 30.1821 28.1153 29.9335L29.4619 24.2406C29.5023 24.0717 29.3028 23.8948 29.0392 23.8948ZM22.6789 28.8083C24.3011 28.8083 25.5812 27.9859 25.5812 26.9054C25.5812 26.0384 24.6597 25.5332 23.4318 25.5332C21.8216 25.5332 20.5676 26.4002 20.5676 27.4807C20.5676 28.3477 21.4653 28.8083 22.6789 28.8083Z" fill="#2C366A"/>
<path fill-rule="evenodd" clip-rule="evenodd" d="M17.9289 23.1154C17.9289 21.2555 15.7914 20.6356 13.3499 20.6356H8.07268C7.90221 20.6364 7.73814 20.6793 7.61162 20.756C7.4851 20.8326 7.40492 20.9378 7.38631 21.0515L5.22268 30.0913C5.18231 30.2682 5.38181 30.4451 5.64543 30.4451H8.15343C8.50968 30.4451 8.83981 30.1885 8.88018 29.9399L9.47393 27.5843C9.60693 26.9468 11.2148 27.1683 11.8489 27.1683C15.6228 27.1683 17.9313 25.6638 17.9313 23.1138L17.9289 23.1154ZM11.0011 22.6118H11.6209C13.1124 22.6118 14.2334 22.7441 13.9294 23.9314C13.6658 25.0566 12.5448 25.1889 11.0937 25.1889L10.0107 25.216L10.5783 22.8509C10.6044 22.7011 10.8039 22.6118 11.0011 22.6118Z" fill="#2C366A"/>
<path d="M34.3829 32.5632L42.7881 24.3633C42.8546 24.3187 42.8546 24.2741 42.8546 24.2135C42.8546 24.0637 42.6574 23.9043 42.4318 23.9043H39.8977C39.7799 23.9078 39.6649 23.9297 39.5619 23.9681C39.4588 24.0066 39.3705 24.0606 39.3039 24.1259L35.8079 27.5795L34.3568 24.2597C34.3015 24.1591 34.2028 24.0718 34.0735 24.0088C33.9441 23.9458 33.7898 23.91 33.6301 23.9059H31.1624C30.9368 23.9059 30.7397 24.0653 30.7397 24.2151C30.7397 24.3219 33.3118 29.245 33.5374 29.7136C33.1812 30.0498 30.8323 32.246 30.8323 32.5122C30.8323 32.6716 31.0294 32.7959 31.2551 32.7959H33.7892C33.9076 32.7903 34.0226 32.7667 34.1254 32.727C34.2283 32.6872 34.3163 32.6323 34.3829 32.5664V32.5632Z" fill="#2C366A"/>
<path fill-rule="evenodd" clip-rule="evenodd" d="M55.4017 23.1154C55.4017 21.2555 53.2642 20.6356 50.8227 20.6356H45.5834C45.4084 20.6356 45.2391 20.6775 45.1059 20.7537C44.9727 20.83 44.8844 20.9355 44.8567 21.0515L42.7192 30.0833C42.6931 30.2602 42.8902 30.4371 43.1419 30.4371H45.8471C46.1107 30.4371 46.3078 30.3048 46.3743 30.1534L46.9681 27.5859C47.1011 26.9484 48.7113 27.1699 49.3431 27.1699C53.0908 27.1699 55.4017 25.6654 55.4017 23.1154ZM48.4999 22.6118H49.0937C50.2171 22.6118 51.4663 22.6564 51.4806 23.5952C51.4806 24.9228 50.2931 25.1889 48.5783 25.1889L47.5238 25.216L48.0772 22.8509C48.1033 22.7011 48.2624 22.6118 48.4999 22.6118Z" fill="#2683AA"/>
<path fill-rule="evenodd" clip-rule="evenodd" d="M66.5096 23.8948H64.0016C63.5004 23.8948 63.4743 24.3825 63.4339 24.6215C62.7072 23.8693 61.5862 23.7354 60.3061 23.7354C57.0737 23.7354 54.6061 25.6383 54.6061 27.7373C54.6061 29.4633 56.2163 30.5885 58.7884 30.5885C60.0163 30.5885 61.4936 30.155 62.2844 29.5351C62.2441 29.6673 62.1514 29.951 62.1514 30.0849C62.1514 30.2889 62.2844 30.4387 62.5742 30.4387H64.8566C65.2128 30.4387 65.5168 30.1821 65.5833 29.9335L66.9299 24.2406C66.9703 24.0717 66.7732 23.8948 66.5096 23.8948ZM58.0379 27.4807C58.0379 26.3922 59.2919 25.5332 60.9022 25.5332C62.1301 25.5332 63.0539 26.0384 63.0397 26.9054C63.0397 27.9939 61.7596 28.8083 60.1754 28.8083C58.9618 28.8083 58.0379 28.3398 58.0379 27.4807Z" fill="#2683AA"/>
<path d="M72.7772 20.9463C72.7772 20.7694 72.5801 20.6372 72.3544 20.6372H69.9129C69.7158 20.6372 69.5163 20.7439 69.4902 20.8762L67.3527 30.0849L67.3147 30.1295C67.3147 30.2889 67.5118 30.4387 67.7754 30.4387H69.9533C70.2834 30.4387 70.6136 30.1821 70.6397 29.9335L72.7772 20.9734V20.9463Z" fill="#2683AA"/>
</g>
<rect x="0.5" y="0.710938" width="77" height="52" rx="4.5" stroke="#DEDCDC"/>
<defs>
<clipPath id="clip0_3725_237">
<rect x="1" y="1.21094" width="76" height="51" rx="4" fill="white"/>
</clipPath>
</defs>
</svg>
